<svg id="Layer_1" data-name="Layer 1" xmlns="http://www.w3.org/2000/svg" viewBox="0 0 140.16 103.39">
  <defs>
    <style>
      .cls-1 {
        fill: #ffb100;
      }
    </style>
  </defs>
  <title>Cachorro</title>
  <path class="cls-1" d="M7.85,109.43s-9,0-4.86-9.23c2.7-2.75,6.91-4,8.9-3.13s2.16,1.46,2.16,1.46,17-5.76,15.82-14.62a13.16,13.16,0,0,1,10.8-8c1.78-1,6.4-3.88,12-4.53,3.72-1.38,8.5-3.8,9.63-4.86s1.94-3.31,9.63-2.67a44.69,44.69,0,0,0,26.62-4.53c13.16-6.58,9-6.71,27-9.38,1.21,0,3.8-4.62,3.15-10.28s-.73-14.24-10.52-24.36c-.4-1.21.08-2.51,2.83,0a45,45,0,0,1,14.89,24.52c0,1.7.73,11.49-2,14.81-.08,3.72-1,6.23,2.11,11.65.16,5.42-1.79,16.83-2.27,18.77s3,10.93,8.09,13.6c.81,1.37.59,1-5.34,6.63s-7.88,9.93-11.44,9.82-10.25,0-10.25,0-3.8-.23-4.69-.79,1.86-4.21,2.91-4.25,6.44.68,7.89,0,6.76-3.08,9.11-7.29a4.65,4.65,0,0,0-.53-5c-.77-.77-4.45-6.44-5.71-6.84-1,.08.25,1.66.25,1.66l1.74,2.87s1.45,2-1,3.93-16.43,13.23-16.43,13.23-.49.93-2.83.93-8.58.12-8.58.12-3.8.32-1.94-2.31,2.31-2.91,3.4-3.11,3-.08,3.4.77c1.33,0,3.81-.33,6.89-3.08s8.57-8.2,8.84-9,2.43-3.61-3.29-10.76c0,0-3.7-2.32-4.31-3.53s-7.18-1.51-15.75,5.55a15.29,15.29,0,0,1-7.39,3.72l2.15,1.46c1.19.81.92,1.67-.27,3.35s-5.17,9-5.39,13.1c0,1.41,0,1-1.83,1.51-.33,2.92-4.1,5.56-4.86,5.51s-6.61.37-6.61.37-1.26.24-1.74-.22c-.57,0-2.51-.07-2.51-.07s-.59-.06-.67-.42c-.22-.06-3.1.38-1.54-1.82s3.62-3.42,4.7-3.4,3.72,1.11,6-1.37a50.45,50.45,0,0,0,6.24-9.53c.22-.91.16-3.07-1.51-3.61s-6.47-2-6.47-2L73.55,97a1.67,1.67,0,0,1,0,2.48c-1.94,1.56-6.58,6-7.06,8.09a3,3,0,0,1-1.41,2.37,3.78,3.78,0,0,1-1.45-.16c-.33-.22-2.51,2.4-2.51,2.4a3.5,3.5,0,0,1-2.64,1.16c-1.81,0-6.62.07-6.62.07s-1.07.09-1.15-.32-2.51-.18-2.51-.18-.83-.39.16-2,1.88-3,3.6-3,4.33,1.12,5.87-.12,6.75-5.2,6.75-6.67A11.3,11.3,0,0,0,62,94.51c-1.52-1.58-4.07-1.84-5,1.23s-2.27,7-4.25,9-5.89,3.29-8.23-2.21c-2.51,0-9.39,8-9.39,8a13.1,13.1,0,0,1-9.33,5.51C19.45,116.76,12.35,118.62,7.85,109.43Z" transform="translate(-1.92 -13.86)"/>
</svg>
