<svg xmlns="http://www.w3.org/2000/svg" viewBox="0 0 878.2 417.77">
  <defs>
    <style>
      .cls-1 {
        font-size: 97.82px;
        font-family: RifficFree-Bold, Riffic Free;
        font-weight: 700;
      }

      .cls-1, .cls-13 {
        fill: #ffb100;
      }

      .cls-2 {
        letter-spacing: -0.03em;
      }

      .cls-3 {
        letter-spacing: -0.01em;
      }

      .cls-4 {
        letter-spacing: -0.01em;
      }

      .cls-5 {
        letter-spacing: 0em;
      }

      .cls-6 {
        letter-spacing: 0em;
      }

      .cls-7 {
        letter-spacing: 0em;
      }

      .cls-8 {
        letter-spacing: -0.02em;
      }

      .cls-9 {
        letter-spacing: 0.01em;
      }

      .cls-10 {
        letter-spacing: 0.01em;
      }

      .cls-11 {
        letter-spacing: 0em;
      }

      .cls-12 {
        fill: #d18600;
      }
    </style>
  </defs>
  <title>Logotipo Petshop</title>
  <g id="Layer_1" data-name="Layer 1">
    <text class="cls-1" transform="translate(0 392.54)"><tspan class="cls-2">Pe</tspan><tspan class="cls-3" x="106.82" y="0">t</tspan><tspan x="151.42" y="0">s</tspan><tspan class="cls-4" x="198.96" y="0">h</tspan><tspan class="cls-5" x="256.18" y="0">op </tspan><tspan class="cls-6" x="394.79" y="0">d</tspan><tspan class="cls-5" x="454.56" y="0">a </tspan><tspan class="cls-3" x="539.66" y="0">B</tspan><tspan class="cls-7" x="596.29" y="0">e</tspan><tspan class="cls-8" x="650.19" y="0">l</tspan><tspan class="cls-9" x="683.16" y="0">i</tspan><tspan class="cls-10" x="708.29" y="0">n</tspan><tspan class="cls-4" x="762.78" y="0">h</tspan><tspan class="cls-11" x="820" y="0">a</tspan></text>
    <path class="cls-12" d="M623.28,634.79" transform="translate(-54.73 -247.1)"/>
  </g>
  <g id="Layer_6" data-name="Layer 6">
    <path class="cls-13" d="M330.61,500.19s-23.71,0-12.85-24.43c7.14-7.28,18.28-10.57,23.57-8.28s5.71,3.85,5.71,3.85,45.11-15.25,41.89-38.71c0,0,7.18-19.29,28.61-21.22,4.72-2.57,16.93-10.28,31.72-12,9.85-3.64,22.5-10.07,25.5-12.85s5.14-8.79,25.5-7.07c5.57.85,35.64,5.42,70.5-12s23.78-17.79,71.35-24.86c3.22,0,10.07-12.22,8.36-27.22s-1.93-37.71-27.86-64.5c-1.07-3.21.22-6.64,7.5,0s30.22,25.72,39.43,64.93c0,4.5,1.93,30.43-5.36,39.22-.21,9.85-2.75,16.5,5.59,30.85.41,14.36-4.73,44.58-6,49.72s7.92,28.93,21.42,36c2.15,3.64,1.58,2.71-14.14,17.57s-20.86,26.29-30.28,26-27.15,0-27.15,0-10.07-.62-12.43-2.12,4.93-11.14,7.72-11.25,17,1.82,20.89,0,17.89-8.14,24.11-19.28c2.78-5.25.64-11.25-1.39-13.29s-11.79-17-15.11-18.11c-2.57.22.64,4.4.64,4.4l4.61,7.6s3.86,5.25-2.57,10.4-43.5,35-43.5,35-1.29,2.47-7.5,2.47-22.72.32-22.72.32-10.07.86-5.14-6.11,6.11-7.71,9-8.25,7.82-.21,9,2c3.54-.11,10.11-.86,18.25-8.15s22.71-21.71,23.43-23.85,6.43-9.57-8.72-28.5c0,0-9.82-6.15-11.42-9.36s-19-4-41.72,14.71c-8.14,8-19.57,9.86-19.57,9.86s2.57,1.72,5.71,3.86,2.43,4.43-.71,8.86-13.71,23.85-14.29,34.71c-.14,3.71-.14,2.57-4.85,4-.86,7.71-10.86,14.71-12.86,14.57s-17.49,1-17.49,1-3.35.65-4.63-.59c-1.5.11-6.65-.16-6.65-.16s-1.55-.16-1.77-1.12c-.58-.16-8.19,1-4.07-4.82s9.59-9.06,12.43-9,9.86,2.94,15.81-3.65,15.94-22.78,16.51-25.21.43-8.14-4-9.57-17.14-5.29-17.14-5.29l3.14,5.86s3.29,2.86,0,6.57c-5.14,4.14-17.43,16-18.71,21.43a8,8,0,0,1-3.72,6.29s-3,.14-3.85-.43-6.65,6.35-6.65,6.35a9.3,9.3,0,0,1-7,3.08c-4.78.14-17.51.19-17.51.19s-2.84.22-3.06-.85-6.64-.49-6.64-.49-2.2-1,.43-5.35,5-7.93,9.53-7.83,11.47,3,15.54-.32,17.89-13.76,17.89-17.68-2.3-12.85-6.85-17.46c-4-4.18-10.77-4.87-13.34,3.27s-6,18.53-11.25,23.89-15.59,8.73-21.81-5.84c-6.64,0-24.85,21.32-24.85,21.32A34.67,34.67,0,0,1,378,517.9C361.33,519.62,342.54,524.55,330.61,500.19Z" transform="translate(-54.73 -247.1)"/>
  </g>
</svg>
